<svg xmlns="http://www.w3.org/2000/svg" width="3840" height="2160" viewBox="0 0 1920 1080"><defs><linearGradient id="sky" x2="0" y2="1"><stop stop-color="#172d40"/><stop offset=".67" stop-color="#66848a"/><stop offset="1" stop-color="#081c25"/></linearGradient><radialGradient id="haze"><stop stop-color="#bfc8bb" stop-opacity=".22"/><stop offset="1" stop-color="#66848a" stop-opacity="0"/></radialGradient><linearGradient id="water" x2="0" y2="1"><stop stop-color="#233f4e"/><stop offset="1" stop-color="#081c25"/></linearGradient><filter id="soft"><feGaussianBlur stdDeviation="35"/></filter><radialGradient id="edge"><stop offset=".25" stop-color="#000" stop-opacity="0"/><stop offset="1" stop-color="#000" stop-opacity=".26"/></radialGradient></defs><rect width="1920" height="1080" fill="url(#sky)"/><circle cx="1123.6852025985718" cy="1.5158127411268651" r="1.3641932795289904" fill="#ecf0df" opacity="0.12784503305330872"/><circle cx="1670.7371896505356" cy="176.30027728853747" r="1.3205196167808027" fill="#ecf0df" opacity="0.1575416708178818"/><circle cx="1651.417554616928" cy="195.44743362581357" r="1.184595048101619" fill="#ecf0df" opacity="0.42133221903815865"/><circle cx="1470.3440648317337" cy="269.4926006044261" r="1.3478136403020473" fill="#ecf0df" opacity="0.30661911683157084"/><circle cx="1343.3820462226868" cy="4.0788622735999525" r="0.9309124930296093" fill="#ecf0df" opacity="0.37364568466320636"/><circle cx="372.91782081127167" cy="370.77799073187634" r="0.7639583110343665" fill="#ecf0df" opacity="0.4629424134083092"/><circle cx="1512.5071442127228" cy="192.21800960367545" r="1.6703378826845436" fill="#ecf0df" opacity="0.4187888784147799"/><circle cx="250.89864313602448" cy="189.17364814085886" r="1.4063149647321551" fill="#ecf0df" opacity="0.43494127856567505"/><circle cx="605.4322528839111" cy="419.77593594929203" r="0.43271607332862916" fill="#ecf0df" opacity="0.12887560034170747"/><circle cx="734.8126548528671" cy="453.49718834040686" r="1.0203076812904328" fill="#ecf0df" opacity="0.35079640688374636"/><circle cx="401.25771403312683" cy="365.06763230776414" r="1.4154273216146978" fill="#ecf0df" opacity="0.23366125205531718"/><circle cx="432.0219165086746" cy="205.97992312861606" r="1.4174310972448438" fill="#ecf0df" opacity="0.49047071950510146"/><circle cx="1290.2948069572449" cy="313.73780159046873" r="0.9445200970862061" fill="#ecf0df" opacity="0.4650740867294371"/><circle cx="665.474426150322" cy="401.50514184264466" r="0.7895082182716578" fill="#ecf0df" opacity="0.1427406141348183"/><circle cx="72.81574845314026" cy="73.31163987284526" r="0.7920938946772367" fill="#ecf0df" opacity="0.42674645910039544"/><circle cx="212.45411932468414" cy="132.47139260871336" r="1.3791982316877693" fill="#ecf0df" opacity="0.2872272150404751"/><circle cx="1797.803692817688" cy="203.37061764439568" r="0.4499320472124964" fill="#ecf0df" opacity="0.28854607546702027"/><circle cx="243.33086907863617" cy="299.28076359210536" r="1.3067543189506978" fill="#ecf0df" opacity="0.50142762305215"/><circle cx="1481.702731847763" cy="431.35326105868444" r="0.8593845379073173" fill="#ecf0df" opacity="0.5061072436906398"/><circle cx="260.31048595905304" cy="476.45216424716637" r="0.45303146815858786" fill="#ecf0df" opacity="0.4927461655624211"/><circle cx="987.1678948402405" cy="383.9809331833385" r="1.3975008128676563" fill="#ecf0df" opacity="0.16536212319508195"/><circle cx="396.18471801280975" cy="374.3596065673046" r="0.898744286550209" fill="#ecf0df" opacity="0.25552564652636645"/><circle cx="1541.8151485919952" cy="354.3086152500473" r="0.5194125935900956" fill="#ecf0df" opacity="0.3520719749666751"/><circle cx="473.0812507867813" cy="196.5954863349907" r="0.6199748130049557" fill="#ecf0df" opacity="0.45307859646156434"/><circle cx="696.9713973999023" cy="394.4006879045628" r="1.3569666894618422" fill="#ecf0df" opacity="0.14635841155424714"/><circle cx="1581.2137073278427" cy="462.95886437175795" r="1.2399303305428475" fill="#ecf0df" opacity="0.2247185224480927"/><circle cx="1406.4244830608368" cy="13.63171245669946" r="1.4736078102607282" fill="#ecf0df" opacity="0.4422346470691264"/><circle cx="577.631648182869" cy="158.06874778820202" r="1.236951178824529" fill="#ecf0df" opacity="0.4177911581285298"/><circle cx="585.1731848716736" cy="192.61221213033423" r="0.5755113786552102" fill="#ecf0df" opacity="0.39213674718514085"/><circle cx="544.970571398735" cy="45.6023712339811" r="0.6087685666512699" fill="#ecf0df" opacity="0.2447057137079537"/><circle cx="1308.1772196292877" cy="302.73945331340656" r="1.4789663427043709" fill="#ecf0df" opacity="0.4764548791386187"/><circle cx="730.201912522316" cy="318.1584781478159" r="1.3930123844649644" fill="#ecf0df" opacity="0.16496612595394253"/><circle cx="649.1072416305542" cy="191.3732268079184" r="0.4340079883579165" fill="#ecf0df" opacity="0.19806456172838807"/><circle cx="523.3830446004868" cy="562.7456020074897" r="1.4439690168481323" fill="#ecf0df" opacity="0.19220230819657447"/><circle cx="1159.094842672348" cy="22.63662907993421" r="0.6043007519561798" fill="#ecf0df" opacity="0.4018579153157771"/><circle cx="196.40727818012238" cy="331.895347579848" r="0.9655891550239176" fill="#ecf0df" opacity="0.42620140032842757"/><circle cx="1825.4825520515442" cy="153.84184350958094" r="0.6032710327301175" fill="#ecf0df" opacity="0.2192749118246138"/><circle cx="321.75386130809784" cy="320.4006721707992" r="1.0007456093560905" fill="#ecf0df" opacity="0.20993901880458"/><circle cx="1150.5738365650177" cy="477.54092164104804" r="0.9864900053013117" fill="#ecf0df" opacity="0.23783462474122644"/><circle cx="1791.2379795312881" cy="157.67916687531397" r="1.6767411218490453" fill="#ecf0df" opacity="0.3116105066426098"/><circle cx="830.3831005096436" cy="369.2015644325875" r="1.4003064321819694" fill="#ecf0df" opacity="0.2956664791144431"/><circle cx="674.7607558965683" cy="225.76133782742545" r="1.5070661786478015" fill="#ecf0df" opacity="0.13166218342259525"/><circle cx="433.38568568229675" cy="380.5079035065137" r="1.3867294762749225" fill="#ecf0df" opacity="0.30104150155559184"/><circle cx="959.0592509508133" cy="92.90388745022938" r="1.6494068225380034" fill="#ecf0df" opacity="0.3348225952871144"/><circle cx="359.2678713798523" cy="548.2862823992036" r="0.9445615133736283" fill="#ecf0df" opacity="0.47690357023850083"/><circle cx="1006.4564627408981" cy="402.82799570588395" r="0.8199024654459208" fill="#ecf0df" opacity="0.5071337649412453"/><circle cx="1557.6768743991852" cy="449.05603781109676" r="0.8467809446621686" fill="#ecf0df" opacity="0.23040066489949823"/><circle cx="1733.6113268136978" cy="239.58260134560987" r="1.6636537009384482" fill="#ecf0df" opacity="0.2379824416525662"/><circle cx="86.97084903717041" cy="429.205280856695" r="1.4141750092152505" fill="#ecf0df" opacity="0.4474161168374121"/><circle cx="30.26871621608734" cy="228.03268315969035" r="1.2814801167231054" fill="#ecf0df" opacity="0.42713135125115514"/><circle cx="1472.968887090683" cy="20.791678314562887" r="1.0452225964982063" fill="#ecf0df" opacity="0.41209985891357065"/><circle cx="58.00944149494171" cy="539.9725412274711" r="1.0129281071480363" fill="#ecf0df" opacity="0.4167504461295903"/><circle cx="1107.701017856598" cy="382.9682338773273" r="1.0022270588669926" fill="#ecf0df" opacity="0.15139967555180192"/><circle cx="189.00025069713593" cy="75.86407816736028" r="1.675528685702011" fill="#ecf0df" opacity="0.14844815524294971"/><circle cx="1728.1582081317902" cy="509.0340694016777" r="0.8536990240681916" fill="#ecf0df" opacity="0.20459245273843407"/><circle cx="1664.743829369545" cy="242.20008038682863" r="1.160305297514424" fill="#ecf0df" opacity="0.1453026341088116"/><circle cx="775.0423622131348" cy="309.11020615836605" r="1.4729892077390105" fill="#ecf0df" opacity="0.41781542802229527"/><circle cx="574.8288005590439" cy="214.49249933240935" r="0.8835316318552942" fill="#ecf0df" opacity="0.5188930148072541"/><circle cx="1391.5163218975067" cy="308.4403460822068" r="1.293171225907281" fill="#ecf0df" opacity="0.16359744051471353"/><circle cx="1555.6797248125076" cy="215.88573273969814" r="1.5947394346352666" fill="#ecf0df" opacity="0.20133065598085523"/><circle cx="981.953866481781" cy="241.31665302207693" r="1.4181744074914606" fill="#ecf0df" opacity="0.3853901808895171"/><circle cx="1369.3071001768112" cy="271.3949058833532" r="1.540976320905611" fill="#ecf0df" opacity="0.4022903928346932"/><circle cx="1490.6897127628326" cy="530.6305339909159" r="1.3901666068006309" fill="#ecf0df" opacity="0.267099441383034"/><circle cx="1882.0573621988297" cy="137.76915282709524" r="0.8873135873582214" fill="#ecf0df" opacity="0.2910417871363461"/><circle cx="1080.7695150375366" cy="383.04842041572556" r="1.2131870160344989" fill="#ecf0df" opacity="0.1276163657940924"/><circle cx="603.3628839254379" cy="408.97989767370746" r="0.6936040248256177" fill="#ecf0df" opacity="0.5034803772158921"/><circle cx="1772.699865102768" cy="479.81254938757047" r="0.5330289777833969" fill="#ecf0df" opacity="0.14034869948402046"/><circle cx="1024.491975903511" cy="237.33413581503555" r="1.6474897307809444" fill="#ecf0df" opacity="0.47415892796590925"/><circle cx="403.1982922554016" cy="3.1667449115775526" r="1.473372797528282" fill="#ecf0df" opacity="0.4777520393766463"/><circle cx="517.298886179924" cy="220.21271518198773" r="1.2536599218379707" fill="#ecf0df" opacity="0.39331868084147575"/><circle cx="1303.9432632923126" cy="538.4071991569363" r="0.8281685561407357" fill="#ecf0df" opacity="0.48086108395829796"/><circle cx="1872.9738003015518" cy="192.4336174945347" r="1.1793587462510913" fill="#ecf0df" opacity="0.18892060386016965"/><circle cx="780.324182510376" cy="321.55825370689854" r="1.510268922382966" fill="#ecf0df" opacity="0.4538208832778037"/><circle cx="480.79284131526947" cy="474.24023951170966" r="1.356143096415326" fill="#ecf0df" opacity="0.3336766416020691"/><circle cx="990.1913917064667" cy="492.67318080877885" r="1.6563119654078036" fill="#ecf0df" opacity="0.4834180889464915"/><circle cx="906.868069767952" cy="304.9146742816083" r="1.6378904213663192" fill="#ecf0df" opacity="0.47708096520975235"/><circle cx="1382.6061701774597" cy="554.7599646239541" r="1.687853967258707" fill="#ecf0df" opacity="0.28361220413818955"/><circle cx="1432.8974837064743" cy="302.01599239138886" r="0.6150565392803401" fill="#ecf0df" opacity="0.3024412223882973"/><circle cx="336.5907347202301" cy="138.33208247786388" r="0.7287522353697569" fill="#ecf0df" opacity="0.465066833589226"/><circle cx="314.9150186777115" cy="396.243523217272" r="0.6851834499742836" fill="#ecf0df" opacity="0.20890978740528227"/><circle cx="1239.8782396316528" cy="231.58428611001" r="0.5787979150656611" fill="#ecf0df" opacity="0.42968093359842896"/><circle cx="722.0405477285385" cy="81.92513617454097" r="1.1796571474056692" fill="#ecf0df" opacity="0.21851501109078525"/><circle cx="1887.662776708603" cy="456.19338292395696" r="1.6435988020617516" fill="#ecf0df" opacity="0.49012006202712655"/><circle cx="915.2298814058304" cy="413.1305219675414" r="1.6467154321726412" fill="#ecf0df" opacity="0.30819247083738444"/><circle cx="1761.3493752479553" cy="368.7440172373317" r="1.220712154963985" fill="#ecf0df" opacity="0.2143476282991469"/><circle cx="386.0247677564621" cy="335.4094738396816" r="0.9907057240139694" fill="#ecf0df" opacity="0.16681622060015797"/><circle cx="307.3040020465851" cy="227.77945153182372" r="0.6420275077689439" fill="#ecf0df" opacity="0.1951561434008181"/><circle cx="835.3028923273087" cy="463.1551688234322" r="1.5675928743090481" fill="#ecf0df" opacity="0.37723004089668394"/><circle cx="1575.6035614013672" cy="86.47734770318493" r="0.472399482363835" fill="#ecf0df" opacity="0.44469846988096834"/><circle cx="72.02787816524506" cy="52.592448990326375" r="1.336716978577897" fill="#ecf0df" opacity="0.22327868880704044"/><circle cx="258.78589510917664" cy="60.950548311229795" r="0.6645306010264904" fill="#ecf0df" opacity="0.21401907185092567"/><circle cx="1871.9992858171463" cy="280.3911027009599" r="1.3688011889811604" fill="#ecf0df" opacity="0.12183914797380566"/><circle cx="970.5997824668884" cy="64.17285782983527" r="0.47010409892536703" fill="#ecf0df" opacity="0.43758526498451833"/><circle cx="1476.6026133298874" cy="147.90414585499093" r="1.4102095268201085" fill="#ecf0df" opacity="0.27985187860205774"/><circle cx="1644.7549402713776" cy="145.5298238969408" r="0.7071667366195471" fill="#ecf0df" opacity="0.4028184665180743"/><circle cx="491.5592962503433" cy="401.0311031411402" r="0.40345469503663484" fill="#ecf0df" opacity="0.37635206745937466"/><circle cx="573.672022819519" cy="295.99451856454834" r="0.5837616125587375" fill="#ecf0df" opacity="0.24462544525042176"/><circle cx="1265.676707625389" cy="75.70628928719088" r="0.6639558907132597" fill="#ecf0df" opacity="0.2695008778758347"/><circle cx="207.23262190818787" cy="288.92831954872236" r="0.7778109755832703" fill="#ecf0df" opacity="0.4649295715428889"/><circle cx="1869.5981580018997" cy="489.0120903099887" r="1.4130466175731273" fill="#ecf0df" opacity="0.12861669974401593"/><ellipse cx="850" cy="360" rx="620" ry="390" fill="url(#haze)"/><circle cx="850" cy="340" r="84" fill="#bfc8bb" opacity=".045" filter="url(#soft)"/><circle cx="850" cy="340" r="45" fill="#bfc8bb" opacity=".73"/><path d="M0 540L180 464L355 530L540 345L697 472L845 407L1040 570L1240 430L1400 540L1620 373L1790 510L1920 463V1080H0Z" fill="#233f4e" opacity="0.6"/><path d="M0 667L210 570L391 630L586 523L760 644L955 520L1167 640L1390 593L1570 645L1750 534L1920 603V1080H0Z" fill="#102934" opacity="0.75"/><path d="M0 778C260 701 405 765 570 726S790 796 990 741S1280 711 1400 778S1670 725 1920 784V1080H0Z" fill="#081c25" opacity="0.8999999999999999"/><rect y="727" width="1920" height="353" fill="url(#water)" opacity=".91"/><path d="M803.6770162079483 734.5725310319103h92.64596758410335" stroke="#bfc8bb" stroke-width="0.7" opacity="0.06177698352257721"/><path d="M818.9055311484262 738.7303366083652h62.18893770314753" stroke="#bfc8bb" stroke-width="0.725" opacity="0.06683372577885166"/><path d="M801.9120385944843 742.6853295038454h96.17592281103134" stroke="#bfc8bb" stroke-width="0.75" opacity="0.0584881800331641"/><path d="M781.9174799853936 746.0512139750645h136.16504002921283" stroke="#bfc8bb" stroke-width="0.7749999999999999" opacity="0.07900331148412079"/><path d="M776.3281908687204 755.1960831773467h147.34361826255918" stroke="#bfc8bb" stroke-width="0.7999999999999999" opacity="0.0579840208904352"/><path d="M784.92767741438 757.6802909784019h130.14464517123997" stroke="#bfc8bb" stroke-width="0.825" opacity="0.06507594602880999"/><path d="M810.7898179851472 761.2558829723857h78.42036402970552" stroke="#bfc8bb" stroke-width="0.85" opacity="0.07263970484607853"/><path d="M807.3450426505879 767.2236510710791h85.30991469882429" stroke="#bfc8bb" stroke-width="0.875" opacity="0.07681856336072088"/><path d="M807.926261426881 775.5612085075118h84.14747714623809" stroke="#bfc8bb" stroke-width="0.8999999999999999" opacity="0.0647531246196013"/><path d="M808.2665909556672 778.0891121532768h83.4668180886656" stroke="#bfc8bb" stroke-width="0.9249999999999999" opacity="0.07962293124990538"/><path d="M776.981552504003 783.9259076225571h146.0368949919939" stroke="#bfc8bb" stroke-width="0.95" opacity="0.04528137240675278"/><path d="M788.7965788403526 789.2287535807118h122.40684231929481" stroke="#bfc8bb" stroke-width="0.975" opacity="0.06032407360617072"/><path d="M763.8787662964314 792.0368612040766h172.24246740713716" stroke="#bfc8bb" stroke-width="1" opacity="0.057071798000251875"/><path d="M793.881335302256 795.4849282801151h112.2373293954879" stroke="#bfc8bb" stroke-width="1.025" opacity="0.06076171952998266"/><path d="M789.2778448350728 805.050804016646h121.44431032985449" stroke="#bfc8bb" stroke-width="1.0499999999999998" opacity="0.0709524876868818"/><path d="M788.4522595675662 810.6278947377577h123.09548086486757" stroke="#bfc8bb" stroke-width="1.075" opacity="0.0475126355420798"/><path d="M787.4564793650061 814.7893816181459h125.08704126998782" stroke="#bfc8bb" stroke-width="1.1" opacity="0.07874527427251451"/><path d="M783.2358720554039 816.0150005016476h133.52825588919222" stroke="#bfc8bb" stroke-width="1.125" opacity="0.054759783374611286"/><path d="M753.2381727844477 823.7172578121535h193.52365443110466" stroke="#bfc8bb" stroke-width="1.15" opacity="0.07393919327412732"/><path d="M800.3749615335837 826.5337707130238h99.2500769328326" stroke="#bfc8bb" stroke-width="1.1749999999999998" opacity="0.07931014414411039"/><path d="M797.179884603247 831.0189464655705h105.6402307935059" stroke="#bfc8bb" stroke-width="1.2" opacity="0.07810116750537419"/><path d="M774.2587776845321 839.9893020577729h151.4824446309358" stroke="#bfc8bb" stroke-width="1.225" opacity="0.04776426066411659"/><path d="M762.0636920146644 843.2990258946083h175.87261597067118" stroke="#bfc8bb" stroke-width="1.25" opacity="0.04629113196977414"/><path d="M804.9328745501116 849.2350344033912h90.13425089977682" stroke="#bfc8bb" stroke-width="1.275" opacity="0.06171457309275866"/><path d="M797.6626819241792 853.0925033972599h104.67463615164161" stroke="#bfc8bb" stroke-width="1.2999999999999998" opacity="0.06747830316307954"/><path d="M756.4006165741012 856.0002692621201h187.1987668517977" stroke="#bfc8bb" stroke-width="1.325" opacity="0.05104395904811099"/><path d="M787.0208200290799 865.8623318853788h125.95835994184017" stroke="#bfc8bb" stroke-width="1.35" opacity="0.07341135157388635"/><path d="M746.288515211083 866.4127260958776h207.422969577834" stroke="#bfc8bb" stroke-width="1.375" opacity="0.06884803776163607"/><path d="M797.3498242925853 874.8544399444945h105.30035141482949" stroke="#bfc8bb" stroke-width="1.4" opacity="0.06126535335904919"/><path d="M762.9764703204855 878.5249743536115h174.04705935902894" stroke="#bfc8bb" stroke-width="1.4249999999999998" opacity="0.07265225877752528"/><path d="M753.3531014062464 882.4521210244857h193.29379718750715" stroke="#bfc8bb" stroke-width="1.45" opacity="0.07886007685796358"/><path d="M737.6416468145326 890.6047510067001h224.71670637093484" stroke="#bfc8bb" stroke-width="1.475" opacity="0.056375069143250585"/><path d="M791.5875860843807 890.8962368392386h116.82482783123851" stroke="#bfc8bb" stroke-width="1.5" opacity="0.061004901797277855"/><path d="M787.9811232788488 895.4159702230245h124.03775344230235" stroke="#bfc8bb" stroke-width="1.525" opacity="0.04933903897413984"/><path d="M732.6188542842865 903.7904244284146h234.762291431427" stroke="#bfc8bb" stroke-width="1.5499999999999998" opacity="0.06876297372509725"/><path d="M763.9136055344716 907.0746536953375h172.17278893105686" stroke="#bfc8bb" stroke-width="1.575" opacity="0.07849022371228784"/><path d="M774.463162695989 913.0663557094522h151.07367460802197" stroke="#bfc8bb" stroke-width="1.6" opacity="0.04982856340124272"/><path d="M759.5644043600187 917.1870570145547h180.87119127996266" stroke="#bfc8bb" stroke-width="1.625" opacity="0.06628975233761594"/><path d="M727.392098095268 921.4180827229284h245.21580380946398" stroke="#bfc8bb" stroke-width="1.65" opacity="0.05496453055762686"/><path d="M756.5605328427628 930.7409393535927h186.87893431447446" stroke="#bfc8bb" stroke-width="1.6749999999999998" opacity="0.04542815422639251"/><path d="M727.8513014037162 932.0016111494042h244.2973971925676" stroke="#bfc8bb" stroke-width="1.7" opacity="0.07223878363030962"/><path d="M747.3541850773618 937.5002206023782h205.29162984527647" stroke="#bfc8bb" stroke-width="1.7249999999999999" opacity="0.04601977329002693"/><path d="M769.2642625495791 942.8110790508799h161.4714749008417" stroke="#bfc8bb" stroke-width="1.75" opacity="0.06981718175229616"/><path d="M760.2030141809955 946.3231919696555h179.59397163800895" stroke="#bfc8bb" stroke-width="1.775" opacity="0.06219926646444947"/><path d="M761.1054634731263 952.9612771649845h177.78907305374742" stroke="#bfc8bb" stroke-width="1.8" opacity="0.06400294248363934"/><path d="M725.8145338436589 957.759992942214h248.37093231268227" stroke="#bfc8bb" stroke-width="1.825" opacity="0.05650214455788955"/><path d="M716.0841778703034 963.5027314550243h267.8316442593932" stroke="#bfc8bb" stroke-width="1.8499999999999999" opacity="0.0642467984429095"/><path d="M715.7596238823608 969.3612393671647h268.4807522352785" stroke="#bfc8bb" stroke-width="1.875" opacity="0.05300408690236509"/><path d="M719.831017518416 972.7451779940166h260.3379649631679" stroke="#bfc8bb" stroke-width="1.9" opacity="0.05067538819159381"/><path d="M760.8265265179798 978.2214842978865h178.3469469640404" stroke="#bfc8bb" stroke-width="1.925" opacity="0.05235684719169512"/><path d="M739.3738462775946 980.7429946358316h221.25230744481087" stroke="#bfc8bb" stroke-width="1.95" opacity="0.049485171410487964"/><path d="M749.771876343526 987.263615119271h200.4562473129481" stroke="#bfc8bb" stroke-width="1.9749999999999999" opacity="0.07952946632634848"/><path d="M727.1779641117901 993.97701330157h245.64407177641988" stroke="#bfc8bb" stroke-width="2" opacity="0.047013025594642384"/><path d="M731.6792132025585 997.5183373428881h236.64157359488308" stroke="#bfc8bb" stroke-width="2.025" opacity="0.07667971902294085"/><path d="M717.8574947230518 1004.7261210842989h264.2850105538964" stroke="#bfc8bb" stroke-width="2.05" opacity="0.04661011118092574"/><path d="M744.6080834465101 1009.0415673376992h210.78383310697973" stroke="#bfc8bb" stroke-width="2.075" opacity="0.07507974438369275"/><path d="M746.0906916428357 1012.5341677502729h207.81861671432853" stroke="#bfc8bb" stroke-width="2.0999999999999996" opacity="0.0483000842097681"/><path d="M725.6582412896678 1016.0168531369418h248.68351742066443" stroke="#bfc8bb" stroke-width="2.125" opacity="0.06983914655866101"/><path d="M698.0414088740945 1024.9179315897636h303.917182251811" stroke="#bfc8bb" stroke-width="2.15" opacity="0.04678379031014628"/><path d="M709.2336182305589 1027.884864336811h281.53276353888214" stroke="#bfc8bb" stroke-width="2.175" opacity="0.07024600007105619"/><path d="M715.9522634278983 1035.4052549456246h268.0954731442034" stroke="#bfc8bb" stroke-width="2.2" opacity="0.05834769098437391"/><path d="M707.4196347584948 1039.9025389775634h285.1607304830104" stroke="#bfc8bb" stroke-width="2.2249999999999996" opacity="0.05031865531345829"/><path d="M727.7820483483374 1040.513945122715h244.43590330332518" stroke="#bfc8bb" stroke-width="2.25" opacity="0.05382995285675861"/><path d="M695.2350848140195 1050.235647172667h309.529830371961" stroke="#bfc8bb" stroke-width="2.275" opacity="0.06956651316024363"/><path d="M702.0607360694557 1055.756645756308h295.8785278610885" stroke="#bfc8bb" stroke-width="2.3" opacity="0.07268387273768895"/><path d="M0.41053732857108116 572.6245777774602l-39.77772401045077 117.8599229939282h26.518482673633844l-47.14396919757128 81.02869705832563h135.53891144301744l-47.14396919757128-81.02869705832563h26.518482673633844z" fill="#0c2530" opacity=".5"/><path d="M80.32512920745648 686.2099623330869l-30.585430335556158 90.62349729053676h20.39028689037077l-36.24939891621471 62.30365438724403h104.21702188411729l-36.24939891621471-62.30365438724403h20.39028689037077z" fill="#0c2530" opacity=".5"/><path d="M130.75447112461552 615.9022520901635l-50.25796947721392 148.9125021547079h33.50531298480928l-59.56500086188316 102.3773452313617h171.2493774779141l-59.56500086188316-102.3773452313617h33.50531298480928z" fill="#0c2530" opacity=".5"/><path d="M196.88464768207632 755.2120851143263l-26.513408219791017 78.55824657715857h17.67560547986068l-31.423298630863428 54.008794521796524h90.34198356373236l-31.423298630863428-54.008794521796524h17.67560547986068z" fill="#0c2530" opacity=".5"/><path d="M248.81127741467208 683.2006569951773l-42.75987537433394 126.6959270350635h28.506583582889288l-50.678370814025406 87.10344983660616h145.70031609032304l-50.678370814025406-87.10344983660616h28.506583582889288z" fill="#0c2530" opacity=".5"/><path d="M304.06228563864715 520.5555113707669l-56.47210424544756 167.3247533198446h37.648069496965036l-66.92990132793784 115.03576790739318h192.4234663178213l-66.92990132793784-115.03576790739318h37.648069496965036z" fill="#0c2530" opacity=".5"/><path d="M370.01220757560804 508.47738325130194l-47.70395978121087 141.34506601840258h31.80263985414058l-56.53802640736103 97.17473288765179h162.54682592116296l-56.53802640736103-97.17473288765179h31.80263985414058z" fill="#0c2530" opacity=".5"/><path d="M424.4051323856693 659.115325442981l-22.913159569795244 67.89084316976368h15.275439713196828l-27.156337267905474 46.67495467921254h78.07446964522823l-27.156337267905474-46.67495467921254h15.275439713196828z" fill="#0c2530" opacity=".5"/><path d="M473.2014952097088 744.8320032190531l-30.54256305336021 90.49648312106729h20.36170870224014l-36.19859324842692 62.216332145733766h104.07095558922738l-36.19859324842692-62.216332145733766h20.36170870224014z" fill="#0c2530" opacity=".5"/><path d="M540.057250889251 563.551020717714l-34.23694884676952 101.44281139783561h22.824632564513013l-40.57712455913425 69.74193283601198h116.65923310751096l-40.57712455913425-69.74193283601198h22.824632564513013z" fill="#0c2530" opacity=".5"/><path d="M585.8156373794191 528.6094453418627l-50.03300551436842 148.2459422647953h33.35533700957894l-59.298376905918126 101.91908530704679h170.4828336045146l-59.298376905918126-101.91908530704679h33.35533700957894z" fill="#0c2530" opacity=".5"/><path d="M652.8075426870491 547.0979692018591l-47.339267734601165 140.26449699141085h31.55951182306744l-56.10579879656434 96.43184168159497h161.3041715401225l-56.10579879656434-96.43184168159497h31.55951182306744z" fill="#0c2530" opacity=".5"/><path d="M700.4244464719668 583.2410700432956l-41.02654562392272 121.56013518199325h27.35103041594848l-48.6240540727973 83.57259293762036h139.79415545929223l-48.6240540727973-83.57259293762036h27.35103041594848z" fill="#0c2530" opacity=".5"/><path d="M778.1742491547484 667.7920270827599l-47.9615100885043 142.10817804001272h31.97434005900286l-56.843271216005085 97.69937240250876h163.42440474601463l-56.843271216005085-97.69937240250876h31.97434005900286z" fill="#0c2530" opacity=".5"/><path d="M821.5199810923077 577.4511325871572l-32.41089496957139 96.03228139132261h21.607263313047586l-38.412912556529044 66.0221934565343h110.43712360002101l-38.412912556529044-66.0221934565343h21.607263313047586z" fill="#0c2530" opacity=".5"/><path d="M880.9937404922675 568.5274227592163l-53.0262806392042 157.11490559764206h35.350853759469466l-62.845962239056824 108.01649759837893h180.68214143728838l-62.845962239056824-108.01649759837893h35.350853759469466z" fill="#0c2530" opacity=".5"/><path d="M947.4209096953273 655.8254590723664l-46.59746439862065 138.06656118109822h31.0649762657471l-55.22662447243929 94.92076081200504h158.77654535826295l-55.22662447243929-94.92076081200504h31.0649762657471z" fill="#0c2530" opacity=".5"/><path d="M988.7165953593794 706.3500269525684l-35.249666301836264 104.44345570914447h23.499777534557506l-41.77738228365779 71.80487580003683h120.10997406551616l-41.77738228365779-71.80487580003683h23.499777534557506z" fill="#0c2530" opacity=".5"/><path d="M1061.2272434807383 568.0301773594692l-46.47683982532472 137.70915503799915h30.984559883549807l-55.083662015199664 94.67504408862443h158.36552829369904l-55.083662015199664-94.67504408862443h30.984559883549807z" fill="#0c2530" opacity=".5"/><path d="M1122.1540131529327 624.749432632234l-43.38769785349723 128.55614178813994h28.925131902331486l-51.422456715255976 88.38234747934622h147.83956305636093l-51.422456715255976-88.38234747934622h28.925131902331486z" fill="#0c2530" opacity=".5"/><path d="M1169.726195386611 481.80623535066843l-55.99596671727486 165.91397545859218h37.33064447818324l-66.36559018343686 114.06585812778214h190.801071777381l-66.36559018343686-114.06585812778214h37.33064447818324z" fill="#0c2530" opacity=".5"/><path d="M1225.8248274803627 534.558975615073l-42.89162356148009 127.08629203401506h28.594415707653386l-50.83451681360602 87.37182577338535h146.14923583911732l-50.83451681360602-87.37182577338535h28.594415707653386z" fill="#0c2530" opacity=".5"/><path d="M1285.3266798299737 674.875204670243l-45.4069089836441 134.5389895811677h30.27127265576273l-53.81559583246708 92.4955553370528h154.71983801834287l-53.81559583246708-92.4955553370528h30.27127265576273z" fill="#0c2530" opacity=".5"/><path d="M1337.8903034466784 575.5279048229568l-53.958237437973736 159.87625907547772h35.97215829198249l-63.950503630191086 109.91492811439095h183.85769793679938l-63.950503630191086-109.91492811439095h35.97215829198249z" fill="#0c2530" opacity=".5"/><path d="M1401.3001631554216 547.6985084172338l-55.11859095669352 163.3143435753882h36.74572730446234l-65.32573743015527 112.2786112080794h187.81149511169642l-65.32573743015527-112.2786112080794h36.74572730446234z" fill="#0c2530" opacity=".5"/><path d="M1451.9930029346142 549.8193643079139l-52.86140714075882 156.62639152817428h35.24093809383921l-62.650556611269714 107.68064417561983h180.12035025740042l-62.650556611269714-107.68064417561983h35.24093809383921z" fill="#0c2530" opacity=".5"/><path d="M1510.1417075651698 563.2607272872701l-44.51838037669659 131.90631222724915h29.678920251131057l-52.76252489089966 90.6855896562338h151.69225906133653l-52.76252489089966-90.6855896562338h29.678920251131057z" fill="#0c2530" opacity=".5"/><path d="M1566.6997911201324 593.7366772792302l-24.68288013318088 73.13445965386927h16.455253422120585l-29.25378386154771 50.27994101203513h84.10462860194967l-29.25378386154771-50.27994101203513h16.455253422120585z" fill="#0c2530" opacity=".5"/><path d="M1641.5496216164902 587.3230289854109l-53.838475759187716 159.52140965685248h35.892317172791806l-63.808563862740996 109.6709691390861h183.44962110538037l-63.808563862740996-109.6709691390861h35.892317172791806z" fill="#0c2530" opacity=".5"/><path d="M1706.7500340279657 583.0136254918762l-38.418161560432054 113.83158980868757h25.612107706954703l-45.53263592347503 78.2592179934727h130.9063282799907l-45.53263592347503-78.2592179934727h25.612107706954703z" fill="#0c2530" opacity=".5"/><path d="M1745.6676381849684 553.5400314768776l-46.49157324219123 137.75280960649252h30.994382161460816l-55.10112384259701 94.70505660446362h158.4157310474664l-55.10112384259701-94.70505660446362h30.994382161460816z" fill="#0c2530" opacity=".5"/><path d="M1810.4907009943854 663.146995480638l-33.66050339292269 99.73482486791909h22.440335595281795l-39.893929947167635 68.56769209669437h114.69504859810695l-39.893929947167635-68.56769209669437h22.440335595281795z" fill="#0c2530" opacity=".5"/><path d="M1876.6524861045182 668.077551247552l-23.309955979837106 69.06653623655438h15.539970653224735l-27.626614494621755 47.483243662631146h79.42651667203755l-27.626614494621755-47.483243662631146h15.539970653224735z" fill="#0c2530" opacity=".5"/><path d="M1923.802937466884 637.6266162493266l-41.356571731274016 122.53799031488597h27.571047820849344l-49.01519612595439 84.2448683414841h140.91868886211887l-49.01519612595439-84.2448683414841h27.571047820849344z" fill="#0c2530" opacity=".5"/><path d="M1986.6346045075916 658.534703371115l-46.56072336751968 137.95769886672497h31.040482245013116l-55.18307954668999 94.84591797087343h158.6513536967337l-55.18307954668999-94.84591797087343h31.040482245013116z" fill="#0c2530" opacity=".5"/><ellipse cx="970" cy="615" rx="1090" ry="90" fill="#66848a" opacity=".22" filter="url(#soft)"/><rect width="1920" height="1080" fill="url(#edge)"/></svg>